<svg width="512" height="512" viewBox="0 0 512 512" fill="none" xmlns="http://www.w3.org/2000/svg">
<g clip-path="url(#clip0_6_171)">
<g filter="url(#filter0_i_6_171)">
<rect width="512" height="512" rx="112.64" fill="#6F6F6F"/>
<rect width="512" height="512" rx="112.64" fill="#242067"/>
</g>
<path d="M231.676 350.774C236.785 349.575 240.753 349.936 245.517 352.702C263.584 363.161 282.627 370.286 302.529 374.464C322.887 378.736 342.695 378.181 362.229 374.853C375.953 372.499 389.407 369.087 401.823 363.045C409.023 359.542 416.481 356.311 423.042 351.804C434.793 343.735 447.056 336.345 457.017 325.758C474.132 307.583 486.44 286.482 492.302 261.022C499.41 230.131 494.448 199.56 482.855 168.652C474.361 145.973 462.66 125.193 448.713 105.39C375.695 1.71675 302.677 -101.957 229.691 -205.634C227.476 -208.778 225.377 -212.023 222.199 -216.776C237.417 -216.649 250.815 -217.13 264.251 -216.257C277.479 -215.39 290.85 -214.057 303.986 -211.273C325.455 -206.725 346.485 -199.79 366.979 -190.267C390.222 -179.467 411.915 -165.763 432.052 -149.356C446.456 -137.622 460.117 -124.703 473.288 -111.42C483.908 -100.723 492.964 -88.3961 502.758 -76.873C519.794 -56.8271 533.452 -34.4969 549.032 -13.4829C557.132 -2.56079 564.955 8.59417 572.542 19.8962C580.651 31.9639 588.855 44.0216 596.061 56.6124C611.337 83.263 624.151 110.968 633.513 140.008C644.156 173.059 649.501 206.534 648.903 240.19C648.253 277.169 640.055 311.738 626.049 344.464C612.804 375.407 594.524 402.452 572.395 426.559C564.964 434.646 556.128 441.341 548.454 449.202C536.441 461.499 521.627 469.987 507.925 479.958C493.221 490.673 476.805 498.475 460.048 505.553C439.11 514.424 417.377 521.323 394.683 525.366C380.969 527.807 366.962 529.132 353.117 531.099C347.95 531.829 344.393 529.837 341.105 525.143C305.085 473.784 268.954 422.484 232.764 371.245C227.783 364.172 226.566 357.604 231.679 350.753L231.676 350.774Z" fill="url(#paint0_angular_6_171)"/>
<path d="M291.213 735.1C268.343 733.958 247.002 735.358 225.117 729.982C216.998 727.989 208.769 727.179 200.698 724.886C176.062 717.889 152.36 707.624 129.235 694.23C109.73 682.952 91.7453 669.422 74.6053 654.46C62.525 643.911 51.4137 632.014 40.1547 620.391C14.9876 594.424 -3.71517 563.39 -24.7649 534.219C-38.0768 515.78 -50.8868 496.968 -64.1335 478.483C-77.5882 459.726 -88.0643 439.518 -98.3859 419.069C-107.142 401.742 -113.727 383.896 -119.614 365.863C-130.085 333.772 -134.947 301.519 -134.91 268.995C-134.877 237.064 -129.329 207.055 -119.099 178.89C-113.012 162.113 -104.655 146.366 -95.8387 131.247C-88.3665 118.445 -79.363 106.64 -69.978 95.4227C-59.6904 83.132 -48.7161 71.4238 -35.8517 61.8683C-27.1565 55.4205 -19.225 47.9115 -10.3274 41.7972C5.62559 30.8089 23.0501 22.3253 40.858 14.4093C64.0791 4.08969 88.8545 -1.89889 114.266 -6.10767C125.537 -7.9734 137.256 -8.21194 148.75 -9.30101C151.741 -9.57979 154.095 -8.59179 155.98 -5.73092C157.093 -4.0587 158.303 -2.45536 159.459 -0.813765C195.095 49.7831 230.731 100.38 266.323 151.008C268.402 153.96 270.376 157.177 271.589 160.492C273.133 164.717 272.943 168.81 269.325 171.339C266.01 173.674 262.469 173.864 258.357 171.373C246.127 163.937 233.397 158.168 220.351 153.267C201.492 146.161 182.713 143.185 163.644 143.308C139.973 143.454 118.094 148.984 97.6565 158.199C82.2977 165.114 68.1114 174.039 55.9221 186.146C43.174 198.799 32.2522 212.66 24.8798 229.713C15.2501 252.011 12.1337 276.1 15.9676 302.299C19.269 324.857 27.2494 346.346 36.9016 367.439C40.1713 374.598 44.6145 381.369 48.901 388.078C93.5443 457.975 143.573 524.136 190.734 592.298C221.575 636.848 253.065 680.96 284.274 725.27C286.344 728.21 288.423 731.162 291.22 735.133L291.213 735.1Z" fill="url(#paint1_angular_6_171)"/>
</g>
<defs>
<filter id="filter0_i_6_171" x="0" y="0" width="512" height="522" filterUnits="userSpaceOnUse" color-interpolation-filters="sRGB">
<feFlood flood-opacity="0" result="BackgroundImageFix"/>
<feBlend mode="normal" in="SourceGraphic" in2="BackgroundImageFix" result="shape"/>
<feColorMatrix in="SourceAlpha" type="matrix" values="0 0 0 0 0 0 0 0 0 0 0 0 0 0 0 0 0 0 127 0" result="hardAlpha"/>
<feOffset dy="10"/>
<feGaussianBlur stdDeviation="20"/>
<feComposite in2="hardAlpha" operator="arithmetic" k2="-1" k3="1"/>
<feColorMatrix type="matrix" values="0 0 0 0 0 0 0 0 0 0 0 0 0 0 0 0 0 0 0.25 0"/>
<feBlend mode="normal" in2="shape" result="effect1_innerShadow_6_171"/>
</filter>
<radialGradient id="paint0_angular_6_171" cx="0" cy="0" r="1" gradientUnits="userSpaceOnUse" gradientTransform="translate(360.2 135.123) rotate(54.8427) scale(367.167 240.194)">
<stop offset="0.260417" stop-color="#EFAAFA"/>
<stop offset="0.53125" stop-color="#93DEFE"/>
<stop offset="0.784595" stop-color="#958CFF"/>
<stop offset="1" stop-color="#FAA2F9"/>
</radialGradient>
<radialGradient id="paint1_angular_6_171" cx="0" cy="0" r="1" gradientUnits="userSpaceOnUse" gradientTransform="translate(148.807 382.572) rotate(54.8427) scale(370.249 229.471)">
<stop offset="0.260417" stop-color="#EFAAFA"/>
<stop offset="0.53125" stop-color="#93DEFE"/>
<stop offset="0.784595" stop-color="#958CFF"/>
<stop offset="1" stop-color="#FAA2F9"/>
</radialGradient>
<clipPath id="clip0_6_171">
<rect width="512" height="512" rx="112.64" fill="white"/>
</clipPath>
</defs>
</svg>
