<svg
          
          width="253"
          height="31"
          viewBox="0 0 253 31"
          fill="none"
          xmlns="http://www.w3.org/2000/svg"
        >
          <g >
            <path
              d="M0,2.65c0-.23,.06-.51,.19-.82,.13-.31,.3-.6,.51-.88,.21-.27,.46-.5,.76-.68,.3-.18,.6-.27,.92-.27h15.56c.31,0,.62,.09,.92,.27,.3,.18,.55,.41,.76,.68,.21,.27,.38,.57,.51,.88,.13,.31,.19,.58,.19,.82V27.5H12.13V7.25c0-.21-.05-.42-.16-.64-.1-.22-.26-.33-.47-.33H6.08V3.32h-1.48V7.53h3.59V27.5H0V2.65ZM33.23,27.5h-8.19L32.72,0h3.78l-1.6,7.53h3.24l-4.91,19.97Zm5.42-9.98l-.7-2.42,1.91-8.81h-3.16l1.29-6.28h3.74l7.68,27.5h-8.19l-.86-3.12h-4.8l1.64-6.86h1.44ZM58.73,7.53h3.59V27.5h-8.19V0h4.6V7.53Zm6.9,9.56h-1.79v-6.98h1.79c.21,0,.36-.11,.47-.33,.1-.22,.16-.44,.16-.64v-1.87c0-.21-.05-.42-.16-.64-.1-.22-.26-.33-.47-.33h-5.42V0h11.86c.31,0,.62,.09,.92,.27,.3,.18,.55,.41,.76,.68,.21,.27,.38,.57,.51,.88,.13,.31,.19,.58,.19,.82V11.43c0,.1-.1,.26-.29,.47s-.41,.42-.64,.62-.47,.41-.7,.6-.39,.33-.47,.41l-.04,.04,.08,.08c.1,.08,.27,.2,.49,.37s.45,.36,.68,.57,.44,.41,.62,.6c.18,.19,.27,.33,.27,.41v11.9h-8.19v-9.44c0-.21-.05-.42-.16-.64s-.26-.33-.47-.33ZM84.08,0V7.53h3.59v2.57h8.85v6.98h-8.85v10.41h-8.19V0h4.6Zm12.83,0V6.28h-11.35V0h11.35Zm-7.72,27.5v-6.98h7.72v6.98h-7.72ZM106.55,7.53h3.59v2.57h7.88c.31,0,.62,.09,.92,.27,.3,.18,.55,.41,.76,.68,.21,.27,.38,.57,.51,.88,.13,.31,.19,.58,.19,.82v12.09c0,.23-.06,.51-.19,.82-.13,.31-.3,.6-.51,.88-.21,.27-.46,.5-.76,.68-.3,.18-.6,.27-.92,.27h-6.36v-6.98h.55c.21,0,.36-.11,.47-.33,.1-.22,.16-.44,.16-.64v-1.48c0-.21-.05-.41-.16-.6s-.25-.32-.43-.37h-7.92c-.31,0-.62-.09-.92-.27-.3-.18-.55-.41-.76-.68-.21-.27-.38-.57-.51-.88-.13-.31-.19-.58-.19-.82V2.65c0-.23,.06-.51,.19-.82,.13-.31,.3-.6,.51-.88,.21-.27,.46-.5,.76-.68,.3-.18,.6-.27,.92-.27h2.22V7.53Zm-4.6,19.97v-6.98h8.19v6.98h-8.19ZM108.03,0h12.36V6.28h-12.36V0Zm25.58,6.28h-8.19V0h8.19V6.28Zm-8.19,21.22V7.53h8.19V27.5h-8.19ZM145.74,0V27.5h-8.19v-10.41h-2.42v-6.98h2.42V0h8.19Z"
              fill="#d9d9d9"
            />
          </g>
        </svg>