<svg width="500" height="300" viewBox="0 0 500 300" fill="none" xmlns="http://www.w3.org/2000/svg">
<g clip-path="url(#clip0_17_23)">
<rect width="500" height="300" rx="15" fill="#242067"/>
<path d="M232.268 206.38C235.34 205.66 237.726 205.877 240.591 207.54C251.456 213.829 262.908 218.114 274.876 220.627C287.119 223.196 299.031 222.862 310.778 220.861C319.031 219.445 327.122 217.394 334.588 213.76C338.918 211.654 343.403 209.71 347.348 207C354.415 202.148 361.79 197.703 367.78 191.337C378.072 180.407 385.474 167.718 388.999 152.407C393.274 133.83 390.29 115.446 383.318 96.8592C378.21 83.2205 371.173 70.7243 362.786 58.8157C318.876 -3.52977 274.965 -65.8753 231.074 -128.223C229.742 -130.114 228.48 -132.065 226.569 -134.923C235.72 -134.847 243.777 -135.136 251.857 -134.611C259.812 -134.09 267.853 -133.288 275.753 -131.614C288.663 -128.879 301.31 -124.708 313.635 -118.982C327.612 -112.487 340.657 -104.246 352.767 -94.3794C361.429 -87.3227 369.644 -79.5538 377.565 -71.5659C383.951 -65.1336 389.397 -57.7204 395.287 -50.7908C405.532 -38.7359 413.745 -25.3074 423.115 -12.6703C427.985 -6.10212 454.437 -13.2966 459 -6.5C463.877 0.757108 493.667 -4.07163 498 3.50001C507.187 19.5267 520.37 55.0362 526 72.5C532.4 92.3754 526.36 119.76 526 140C525.61 162.238 534.423 201.18 526 220.861C518.035 239.469 539.308 344.003 526 358.5C521.531 363.363 429.615 297.272 425 302C417.776 309.395 405.74 296.004 397.5 302C388.658 308.444 377.857 297.743 367.78 302C355.189 307.335 343.942 308.943 330.295 311.374C322.048 312.842 313.624 313.639 305.298 314.821C302.191 315.26 300.052 314.062 298.074 311.24C276.413 280.354 254.685 249.504 232.922 218.691C229.927 214.438 229.195 210.488 232.27 206.368L232.268 206.38Z" fill="url(#paint0_linear_17_23)"/>
<path d="M268.071 437.5C254.318 436.814 241.485 437.655 228.324 434.422C223.441 433.224 218.493 432.737 213.639 431.358C198.824 427.15 184.57 420.977 170.664 412.923C158.934 406.141 148.119 398.004 137.811 389.006C130.547 382.663 123.865 375.508 117.094 368.519C101.96 352.903 90.7124 334.24 78.0538 316.698C70.0486 305.609 19.7831 346.116 11.8171 335C3.72588 323.72 -28.2927 282.798 -34.4997 270.5C-39.7651 260.081 -30.9594 227.247 -34.4999 216.403C-40.7969 197.104 -17.0223 196.789 -16.9999 177.23C-16.9804 158.028 -23.1515 115.433 -16.9999 98.4955C-13.3391 88.4068 -39.8015 90.7104 -34.4999 81.6184C-30.0063 73.9199 -40.1437 1.69426 -34.4999 -5.05133C-28.3133 -12.4425 -69.5002 -47 -69.5002 -47C-69.5002 -47 -3.53252 -18.43 11.8168 -30.5C27.1662 -42.57 104.429 -25.7396 115.138 -30.5C129.102 -36.7059 146.38 -5.70391 161.662 -8.23492C168.44 -9.3569 175.487 -9.50033 182.399 -10.1553C184.198 -10.3229 185.614 -9.72875 186.747 -8.00833C187.416 -7.00272 188.144 -6.03854 188.84 -5.05135C210.27 25.3758 231.7 55.8029 253.104 86.2485C254.354 88.0239 255.541 89.9587 256.27 91.9523C257.199 94.4926 257.084 96.9544 254.909 98.4751C252.915 99.8792 250.786 99.9937 248.313 98.4955C240.959 94.0238 233.303 90.5543 225.458 87.6074C214.116 83.3337 202.823 81.5446 191.356 81.6184C177.121 81.7063 163.964 85.0313 151.674 90.5734C142.437 94.7315 133.906 100.099 126.576 107.38C118.91 114.989 112.342 123.324 107.908 133.579C102.117 146.988 100.243 161.474 102.549 177.23C104.534 190.795 109.333 203.718 115.138 216.403C117.104 220.708 119.776 224.779 122.354 228.814C149.201 270.848 179.286 310.635 207.647 351.625C226.194 378.416 245.131 404.943 263.898 431.589C265.143 433.357 266.394 435.133 268.075 437.52L268.071 437.5Z" fill="url(#paint1_linear_17_23)"/>
</g>
<defs>
<linearGradient id="paint0_linear_17_23" x1="182.415" y1="-103.826" x2="552.5" y2="261" gradientUnits="userSpaceOnUse">
<stop offset="0.0948922" stop-color="#93DEFE"/>
<stop offset="0.640741" stop-color="#958CFF"/>
<stop offset="1" stop-color="#FAA2F9"/>
</linearGradient>
<linearGradient id="paint1_linear_17_23" x1="54.2244" y1="43.466" x2="310.643" y2="407.539" gradientUnits="userSpaceOnUse">
<stop stop-color="#EFAAFA"/>
<stop offset="0.53125" stop-color="#93DEFE"/>
<stop offset="0.651042" stop-color="#958CFF"/>
</linearGradient>
<clipPath id="clip0_17_23">
<rect width="500" height="300" rx="15" fill="white"/>
</clipPath>
</defs>
</svg>
