<svg width="511" height="561" viewBox="0 0 511 561" fill="none" xmlns="http://www.w3.org/2000/svg">
<path d="M242.026 327.074C244.583 326.474 246.568 326.655 248.952 328.038C257.993 333.267 267.522 336.83 277.48 338.919C287.668 341.055 297.579 340.777 307.354 339.113C314.221 337.936 320.953 336.23 327.166 333.209C330.769 331.458 334.501 329.842 337.784 327.589C343.664 323.554 349.8 319.859 354.785 314.566C363.349 305.478 369.508 294.928 372.441 282.198C375.998 266.752 373.515 251.467 367.714 236.013C363.463 224.673 357.608 214.283 350.629 204.382C314.092 152.545 277.554 100.708 241.033 48.87C239.925 47.2976 238.874 45.675 237.284 43.2987C244.899 43.3624 251.603 43.122 258.326 43.5581C264.946 43.9916 271.636 44.6584 278.21 46.0501C288.952 48.3242 299.475 51.7919 309.731 56.5533C321.361 61.9531 332.216 68.8054 342.293 77.0088C349.5 82.876 356.336 89.3355 362.927 95.9769C368.241 101.325 372.772 107.489 377.673 113.25C386.198 123.273 393.032 134.438 400.828 144.945C404.881 150.406 408.795 155.984 412.592 161.635C416.65 167.669 420.755 173.698 424.361 179.993C432.005 193.318 438.417 207.171 443.101 221.691C448.427 238.216 451.102 254.954 450.802 271.782C450.477 290.271 446.375 307.556 439.366 323.919C432.739 339.39 423.592 352.913 412.518 364.966C408.8 369.01 404.379 372.357 400.539 376.288C394.527 382.436 387.115 386.68 380.259 391.666C372.901 397.023 364.686 400.924 356.301 404.463C345.824 408.899 334.949 412.348 323.593 414.37C316.731 415.59 309.722 416.253 302.794 417.236C300.209 417.601 298.429 416.605 296.783 414.258C278.759 388.579 260.68 362.929 242.571 337.309C240.078 333.773 239.469 330.489 242.028 327.063L242.026 327.074Z" fill="url(#paint0_linear_20_92)"/>
<path d="M271.818 519.237C260.374 518.666 249.695 519.366 238.745 516.678C234.682 515.681 230.564 515.276 226.526 514.13C214.198 510.631 202.337 505.499 190.766 498.802C181.006 493.163 172.007 486.398 163.43 478.917C157.385 473.642 151.825 467.694 146.191 461.882C133.598 448.899 124.239 433.382 113.706 418.796C107.045 409.577 100.635 400.171 94.0065 390.928C87.2739 381.55 82.0317 371.446 76.8669 361.221C72.4857 352.558 69.1906 343.635 66.2446 334.618C61.0049 318.573 58.5722 302.446 58.5908 286.184C58.6071 270.219 61.3836 255.214 66.5022 241.132C69.5483 232.743 73.7301 224.87 78.1415 217.31C81.8805 210.909 86.3858 205.007 91.0819 199.398C96.2297 193.253 101.721 187.399 108.158 182.621C112.509 179.397 116.478 175.643 120.93 172.585C128.913 167.091 137.632 162.849 146.543 158.891C158.163 153.732 170.56 150.737 183.276 148.633C188.916 147.7 194.78 147.581 200.531 147.036C202.028 146.897 203.206 147.391 204.149 148.821C204.706 149.657 205.312 150.459 205.89 151.28C223.722 176.578 241.554 201.877 259.364 227.191C260.404 228.667 261.391 230.275 261.998 231.933C262.771 234.045 262.676 236.092 260.866 237.356C259.207 238.524 257.435 238.619 255.377 237.373C249.258 233.655 242.888 230.771 236.36 228.32C226.923 224.767 217.526 223.28 207.984 223.341C196.139 223.414 185.191 226.179 174.964 230.786C167.279 234.244 160.18 238.706 154.081 244.76C147.702 251.086 142.237 258.017 138.548 266.543C133.729 277.692 132.17 289.737 134.088 302.836C135.74 314.115 139.734 324.86 144.563 335.406C146.2 338.986 148.423 342.371 150.568 345.726C172.907 380.674 197.941 413.755 221.54 447.836C236.972 470.111 252.73 492.167 268.346 514.322C269.382 515.792 270.422 517.268 271.822 519.253L271.818 519.237Z" fill="url(#paint1_linear_20_92)"/>
<defs>
<linearGradient id="paint0_linear_20_92" x1="132.694" y1="158.577" x2="454.797" y2="252.122" gradientUnits="userSpaceOnUse">
<stop offset="0.122564" stop-color="#93DEFE"/>
<stop offset="0.583649" stop-color="#EFAAFA"/>
<stop offset="0.949214" stop-color="#958CFF"/>
</linearGradient>
<linearGradient id="paint1_linear_20_92" x1="30.0986" y1="278.527" x2="350.244" y2="362.366" gradientUnits="userSpaceOnUse">
<stop offset="0.122564" stop-color="#93DEFE"/>
<stop offset="0.583649" stop-color="#EFAAFA"/>
<stop offset="0.949214" stop-color="#958CFF"/>
</linearGradient>
</defs>
</svg>
